# Blender 4.1.0
# www.blender.org
mtllib holder1.mtl
o Cube
v -0.162942 -0.064329 -0.106589
v -0.163065 -0.031488 -0.106532
v 0.162294 -0.063109 -0.107336
v 0.162171 -0.030268 -0.107280
v -0.162477 -0.064678 0.095518
v -0.162600 -0.031837 0.095575
v 0.162759 -0.063457 0.094771
v 0.162636 -0.030617 0.094828
vn -0.0023 0.0017 -1.0000
vn 1.0000 0.0038 -0.0023
vn 0.0023 -0.0017 1.0000
vn -1.0000 -0.0038 0.0023
vn 0.0037 -1.0000 -0.0017
vn -0.0037 1.0000 0.0017
vt 0.375000 0.000000
vt 0.625000 0.000000
vt 0.625000 0.250000
vt 0.375000 0.250000
vt 0.625000 0.500000
vt 0.375000 0.500000
vt 0.625000 0.750000
vt 0.375000 0.750000
vt 0.625000 1.000000
vt 0.375000 1.000000
vt 0.125000 0.500000
vt 0.125000 0.750000
vt 0.875000 0.500000
vt 0.875000 0.750000
s 0
f 1/1/1 2/2/1 4/3/1 3/4/1
f 3/4/2 4/3/2 8/5/2 7/6/2
f 7/6/3 8/5/3 6/7/3 5/8/3
f 5/8/4 6/7/4 2/9/4 1/10/4
f 3/11/5 7/6/5 5/8/5 1/12/5
f 8/5/6 4/13/6 2/14/6 6/7/6
o Cube.004
v -0.118025 -0.064427 0.029415
v -0.118288 0.005762 0.029537
v -0.093404 -0.064335 0.029359
v -0.093667 0.005854 0.029480
v -0.117961 -0.064475 0.057226
v -0.118224 0.005714 0.057348
v -0.093340 -0.064383 0.057170
v -0.093603 0.005806 0.057291
vn -0.0023 0.0017 -1.0000
vn 1.0000 0.0038 -0.0023
vn 0.0023 -0.0017 1.0000
vn -1.0000 -0.0038 0.0023
vn 0.0037 -1.0000 -0.0017
vn -0.0037 1.0000 0.0017
vt 0.375000 0.000000
vt 0.625000 0.000000
vt 0.625000 0.250000
vt 0.375000 0.250000
vt 0.625000 0.500000
vt 0.375000 0.500000
vt 0.625000 0.750000
vt 0.375000 0.750000
vt 0.625000 1.000000
vt 0.375000 1.000000
vt 0.125000 0.500000
vt 0.125000 0.750000
vt 0.875000 0.500000
vt 0.875000 0.750000
s 0
f 9/15/7 10/16/7 12/17/7 11/18/7
f 11/18/8 12/17/8 16/19/8 15/20/8
f 15/20/9 16/19/9 14/21/9 13/22/9
f 13/22/10 14/21/10 10/23/10 9/24/10
f 11/25/11 15/20/11 13/22/11 9/26/11
f 16/19/12 12/27/12 10/28/12 14/21/12
o Cube.007
v -0.161160 -0.064427 0.029415
v -0.161423 0.005762 0.029537
v -0.136539 -0.064335 0.029359
v -0.136802 0.005854 0.029480
v -0.161096 -0.064475 0.057226
v -0.161359 0.005714 0.057348
v -0.136475 -0.064383 0.057170
v -0.136738 0.005806 0.057291
vn -0.0023 0.0017 -1.0000
vn 1.0000 0.0038 -0.0023
vn 0.0023 -0.0017 1.0000
vn -1.0000 -0.0038 0.0023
vn 0.0037 -1.0000 -0.0017
vn -0.0037 1.0000 0.0017
vt 0.375000 0.000000
vt 0.625000 0.000000
vt 0.625000 0.250000
vt 0.375000 0.250000
vt 0.625000 0.500000
vt 0.375000 0.500000
vt 0.625000 0.750000
vt 0.375000 0.750000
vt 0.625000 1.000000
vt 0.375000 1.000000
vt 0.125000 0.500000
vt 0.125000 0.750000
vt 0.875000 0.500000
vt 0.875000 0.750000
s 0
f 17/29/13 18/30/13 20/31/13 19/32/13
f 19/32/14 20/31/14 24/33/14 23/34/14
f 23/34/15 24/33/15 22/35/15 21/36/15
f 21/36/16 22/35/16 18/37/16 17/38/16
f 19/39/17 23/34/17 21/36/17 17/40/17
f 24/33/18 20/41/18 18/42/18 22/35/18
o Cube.005
v -0.075349 -0.064427 0.029415
v -0.075612 0.005762 0.029537
v -0.050728 -0.064335 0.029359
v -0.050991 0.005854 0.029480
v -0.075285 -0.064475 0.057226
v -0.075548 0.005714 0.057348
v -0.050663 -0.064383 0.057170
v -0.050927 0.005806 0.057291
vn -0.0023 0.0017 -1.0000
vn 1.0000 0.0038 -0.0023
vn 0.0023 -0.0017 1.0000
vn -1.0000 -0.0038 0.0023
vn 0.0037 -1.0000 -0.0017
vn -0.0037 1.0000 0.0017
vt 0.375000 0.000000
vt 0.625000 0.000000
vt 0.625000 0.250000
vt 0.375000 0.250000
vt 0.625000 0.500000
vt 0.375000 0.500000
vt 0.625000 0.750000
vt 0.375000 0.750000
vt 0.625000 1.000000
vt 0.375000 1.000000
vt 0.125000 0.500000
vt 0.125000 0.750000
vt 0.875000 0.500000
vt 0.875000 0.750000
s 0
f 25/43/19 26/44/19 28/45/19 27/46/19
f 27/46/20 28/45/20 32/47/20 31/48/20
f 31/48/21 32/47/21 30/49/21 29/50/21
f 29/50/22 30/49/22 26/51/22 25/52/22
f 27/53/23 31/48/23 29/50/23 25/54/23
f 32/47/24 28/55/24 26/56/24 30/49/24
o Cube.008
v -0.032243 -0.064427 0.029415
v -0.032506 0.005762 0.029537
v -0.007622 -0.064335 0.029359
v -0.007885 0.005854 0.029480
v -0.032179 -0.064475 0.057226
v -0.032442 0.005714 0.057348
v -0.007558 -0.064383 0.057170
v -0.007821 0.005806 0.057291
vn -0.0023 0.0017 -1.0000
vn 1.0000 0.0038 -0.0023
vn 0.0023 -0.0017 1.0000
vn -1.0000 -0.0038 0.0023
vn 0.0037 -1.0000 -0.0017
vn -0.0037 1.0000 0.0017
vt 0.375000 0.000000
vt 0.625000 0.000000
vt 0.625000 0.250000
vt 0.375000 0.250000
vt 0.625000 0.500000
vt 0.375000 0.500000
vt 0.625000 0.750000
vt 0.375000 0.750000
vt 0.625000 1.000000
vt 0.375000 1.000000
vt 0.125000 0.500000
vt 0.125000 0.750000
vt 0.875000 0.500000
vt 0.875000 0.750000
s 0
f 33/57/25 34/58/25 36/59/25 35/60/25
f 35/60/26 36/59/26 40/61/26 39/62/26
f 39/62/27 40/61/27 38/63/27 37/64/27
f 37/64/28 38/63/28 34/65/28 33/66/28
f 35/67/29 39/62/29 37/64/29 33/68/29
f 40/61/30 36/69/30 34/70/30 38/63/30
o Cube.001
v 0.049319 -0.064427 0.029415
v 0.049056 0.005762 0.029537
v 0.073940 -0.064335 0.029359
v 0.073677 0.005854 0.029480
v 0.049383 -0.064475 0.057226
v 0.049120 0.005714 0.057348
v 0.074004 -0.064383 0.057170
v 0.073741 0.005806 0.057291
vn -0.0023 0.0017 -1.0000
vn 1.0000 0.0038 -0.0023
vn 0.0023 -0.0017 1.0000
vn -1.0000 -0.0038 0.0023
vn 0.0037 -1.0000 -0.0017
vn -0.0037 1.0000 0.0017
vt 0.375000 0.000000
vt 0.625000 0.000000
vt 0.625000 0.250000
vt 0.375000 0.250000
vt 0.625000 0.500000
vt 0.375000 0.500000
vt 0.625000 0.750000
vt 0.375000 0.750000
vt 0.625000 1.000000
vt 0.375000 1.000000
vt 0.125000 0.500000
vt 0.125000 0.750000
vt 0.875000 0.500000
vt 0.875000 0.750000
s 0
f 41/71/31 42/72/31 44/73/31 43/74/31
f 43/74/32 44/73/32 48/75/32 47/76/32
f 47/76/33 48/75/33 46/77/33 45/78/33
f 45/78/34 46/77/34 42/79/34 41/80/34
f 43/81/35 47/76/35 45/78/35 41/82/35
f 48/75/36 44/83/36 42/84/36 46/77/36
o Cube.002
v 0.008018 -0.064427 0.029415
v 0.007755 0.005762 0.029537
v 0.032639 -0.064335 0.029359
v 0.032376 0.005854 0.029480
v 0.008082 -0.064475 0.057226
v 0.007819 0.005714 0.057348
v 0.032703 -0.064383 0.057170
v 0.032440 0.005806 0.057291
vn -0.0023 0.0017 -1.0000
vn 1.0000 0.0038 -0.0023
vn 0.0023 -0.0017 1.0000
vn -1.0000 -0.0038 0.0023
vn 0.0037 -1.0000 -0.0017
vn -0.0037 1.0000 0.0017
vt 0.375000 0.000000
vt 0.625000 0.000000
vt 0.625000 0.250000
vt 0.375000 0.250000
vt 0.625000 0.500000
vt 0.375000 0.500000
vt 0.625000 0.750000
vt 0.375000 0.750000
vt 0.625000 1.000000
vt 0.375000 1.000000
vt 0.125000 0.500000
vt 0.125000 0.750000
vt 0.875000 0.500000
vt 0.875000 0.750000
s 0
f 49/85/37 50/86/37 52/87/37 51/88/37
f 51/88/38 52/87/38 56/89/38 55/90/38
f 55/90/39 56/89/39 54/91/39 53/92/39
f 53/92/40 54/91/40 50/93/40 49/94/40
f 51/95/41 55/90/41 53/92/41 49/96/41
f 56/89/42 52/97/42 50/98/42 54/91/42
o Cube.003
v 0.090669 -0.064427 0.029415
v 0.090406 0.005762 0.029537
v 0.115290 -0.064335 0.029359
v 0.115027 0.005854 0.029480
v 0.090733 -0.064475 0.057226
v 0.090470 0.005714 0.057348
v 0.115354 -0.064383 0.057170
v 0.115091 0.005806 0.057291
vn -0.0023 0.0017 -1.0000
vn 1.0000 0.0038 -0.0023
vn 0.0023 -0.0017 1.0000
vn -1.0000 -0.0038 0.0023
vn 0.0037 -1.0000 -0.0017
vn -0.0037 1.0000 0.0017
vt 0.375000 0.000000
vt 0.625000 0.000000
vt 0.625000 0.250000
vt 0.375000 0.250000
vt 0.625000 0.500000
vt 0.375000 0.500000
vt 0.625000 0.750000
vt 0.375000 0.750000
vt 0.625000 1.000000
vt 0.375000 1.000000
vt 0.125000 0.500000
vt 0.125000 0.750000
vt 0.875000 0.500000
vt 0.875000 0.750000
s 0
f 57/99/43 58/100/43 60/101/43 59/102/43
f 59/102/44 60/101/44 64/103/44 63/104/44
f 63/104/45 64/103/45 62/105/45 61/106/45
f 61/106/46 62/105/46 58/107/46 57/108/46
f 59/109/47 63/104/47 61/106/47 57/110/47
f 64/103/48 60/111/48 58/112/48 62/105/48
o Cube.006
v 0.137051 -0.064427 0.029415
v 0.136788 0.005762 0.029537
v 0.161672 -0.064335 0.029359
v 0.161409 0.005854 0.029480
v 0.137115 -0.064475 0.057226
v 0.136852 0.005714 0.057348
v 0.161736 -0.064383 0.057170
v 0.161473 0.005806 0.057291
vn -0.0023 0.0017 -1.0000
vn 1.0000 0.0038 -0.0023
vn 0.0023 -0.0017 1.0000
vn -1.0000 -0.0038 0.0023
vn 0.0037 -1.0000 -0.0017
vn -0.0037 1.0000 0.0017
vt 0.375000 0.000000
vt 0.625000 0.000000
vt 0.625000 0.250000
vt 0.375000 0.250000
vt 0.625000 0.500000
vt 0.375000 0.500000
vt 0.625000 0.750000
vt 0.375000 0.750000
vt 0.625000 1.000000
vt 0.375000 1.000000
vt 0.125000 0.500000
vt 0.125000 0.750000
vt 0.875000 0.500000
vt 0.875000 0.750000
s 0
f 65/113/49 66/114/49 68/115/49 67/116/49
f 67/116/50 68/115/50 72/117/50 71/118/50
f 71/118/51 72/117/51 70/119/51 69/120/51
f 69/120/52 70/119/52 66/121/52 65/122/52
f 67/123/53 71/118/53 69/120/53 65/124/53
f 72/117/54 68/125/54 66/126/54 70/119/54
